<?xml version="1.0" encoding="UTF-8" standalone="no"?>
<svg
   fill="#1779c4"
   viewBox="0 0 250 250"
   width="40"
   height="40"
   aria-hidden="true"
   version="1.1"
   id="svg8"
   sodipodi:docname="corner.github.svg"
   inkscape:version="1.2.2 (b0a84865, 2022-12-01)"
   xmlns:inkscape="http://www.inkscape.org/namespaces/inkscape"
   xmlns:sodipodi="http://sodipodi.sourceforge.net/DTD/sodipodi-0.dtd"
   xmlns="http://www.w3.org/2000/svg"
   xmlns:svg="http://www.w3.org/2000/svg">
  <defs
     id="defs12" />
  <sodipodi:namedview
     id="namedview10"
     pagecolor="#ffffff"
     bordercolor="#000000"
     borderopacity="0.25"
     inkscape:showpageshadow="2"
     inkscape:pageopacity="0.0"
     inkscape:pagecheckerboard="0"
     inkscape:deskcolor="#d1d1d1"
     showgrid="false"
     inkscape:zoom="5.9"
     inkscape:cx="20.084746"
     inkscape:cy="20"
     inkscape:window-width="1309"
     inkscape:window-height="456"
     inkscape:window-x="0"
     inkscape:window-y="38"
     inkscape:window-maximized="0"
     inkscape:current-layer="svg8" />
  <path
     id="path2"
     d="M 0 0 L 115.00244 115.00244 L 120.20264 115.00244 L 127.14844 108.10547 C 114.28878 99.061023 118.99414 89.599609 118.99414 89.599609 C 121.99414 82.699616 120.49561 78.601074 120.49561 78.601074 C 119.19561 72.001081 123.40088 76.293945 123.40088 76.293945 C 127.30088 80.893941 125.50049 87.304688 125.50049 87.304688 C 123.20348 96.404357 128.84707 100.65139 132.83691 102.45361 L 133.70361 101.59912 C 136.90361 99.199126 139.89971 98.396193 142.19971 98.596191 C 133.79973 87.996213 127.49885 74.395573 143.79883 57.995605 C 148.49881 53.395615 154.00461 51.200975 159.70459 51.000977 C 160.30459 49.400979 163.19893 43.60009 171.39893 40.100098 C 171.39893 40.100098 176.09639 42.5012 178.79639 56.201172 C 183.09637 58.601166 187.20578 61.805281 190.90576 65.405273 C 194.50576 69.005267 197.69766 73.200106 200.09766 77.600098 C 213.79762 80.200092 216.29639 84.899902 216.29639 84.899902 C 212.69639 93.099886 206.89551 95.99424 205.39551 96.594238 C 205.09551 102.39422 203.00322 107.8 198.30322 112.5 C 181.90326 128.89996 168.30262 122.4991 157.70264 114.09912 C 157.90264 116.89912 156.69775 120.90236 152.69775 124.90234 L 141.00342 136.49902 C 140.4528 137.04964 140.55207 138.23463 140.82031 139.34326 L 142.00439 142.00439 L 250 250 L 250 0 L 0 0 z " />
</svg>
