<svg xmlns="http://www.w3.org/2000/svg" fill="#1779c4" viewBox="0 0 250 250" width="90" height="90" aria-hidden="true">
    <path d="M 0,0 C 83.280878,83.336336 175.77709,175.78653 250,250 V 0 Z m 185.16846,13.037109 a 4.0231889,4.1069245 0 0 1 3.07617,3.491211 3.9427251,4.024786 0 0 1 -0.48828,2.4292 l -14.77051,29.724121 29.04053,29.650879 29.12597,-15.075684 a 4.0231889,4.1069245 0 0 1 2.36817,-0.500488 4.0231889,4.1069245 0 0 1 3.43017,3.137207 3.9139881,3.9954508 0 0 1 -0.23193,2.46582 l -17.08984,39.147945 -0.1709,0.39063 a 27.909436,28.490322 0 0 1 -29.32129,16.57715 h -0.0732 l -28.4668,-4.17481 -14.0625,-1.98974 -8.55713,-1.22071 a 4.6381621,4.7346972 0 0 1 -3.96728,-4.04052 l -1.19629,-8.74024 -1.95313,-14.355467 -4.06494,-28.894043 -0.0244,-0.170898 -0.0122,-0.07324 a 27.897941,28.478588 0 0 1 16.25976,-29.943848 l 0.39063,-0.183105 38.35449,-17.419434 a 3.9484725,4.030653 0 0 1 2.40479,-0.231934 z" />
</svg>