<?xml version="1.0" encoding="UTF-8" standalone="no"?>
<!DOCTYPE svg PUBLIC "-//W3C//DTD SVG 1.1//EN"
 "http://www.w3.org/Graphics/SVG/1.1/DTD/svg11.dtd">
<!-- Generated by graphviz version 8.0.1 (20230327.1645)
 -->
<!-- Title: examples/main.c Pages: 1 -->
<svg width="109pt" height="137pt"
 viewBox="0.00 0.00 108.50 137.00" xmlns="http://www.w3.org/2000/svg" xmlns:xlink="http://www.w3.org/1999/xlink">
<g id="graph0" class="graph" transform="scale(1 1) rotate(0) translate(4 133)">
<title>examples/main.c</title>
<!-- Node1 -->
<g id="node1" class="node">
<title>Node1</title>
<g id="a_node1"><a xlink:title=" ">
<polygon fill="#999999" stroke="#666666" points="91,-129 0,-129 0,-110 91,-110 91,-129"/>
<text text-anchor="middle" x="45.5" y="-117" font-family="Helvetica,sans-Serif" font-size="10.00">examples/main.c</text>
</a>
</g>
</g>
<!-- Node2 -->
<g id="node2" class="node">
<title>Node2</title>
<g id="a_node2"><a xlink:title=" ">
<polygon fill="#e0e0e0" stroke="#999999" points="69.5,-19 21.5,-19 21.5,0 69.5,0 69.5,-19"/>
<text text-anchor="middle" x="45.5" y="-7" font-family="Helvetica,sans-Serif" font-size="10.00">stdlib.h</text>
</a>
</g>
</g>
<!-- Node1&#45;&gt;Node2 -->
<g id="edge1" class="edge">
<title>Node1&#45;&gt;Node2</title>
<path fill="none" stroke="#63b8ff" d="M43.24,-109.89C40.3,-97.7 35.74,-74.7 37.5,-55 38.24,-46.69 39.74,-37.62 41.25,-29.84"/>
<polygon fill="#63b8ff" stroke="#63b8ff" points="44.83,-30.81 43.44,-20.3 37.98,-29.38 44.83,-30.81"/>
</g>
<!-- Node3 -->
<g id="node3" class="node">
<title>Node3</title>
<g id="a_node3"><a xlink:href="../../d4/d68/display_8h.html" target="_top" xlink:title="A silly file for printing messages.">
<polygon fill="white" stroke="#666666" points="100.5,-74 46.5,-74 46.5,-55 100.5,-55 100.5,-74"/>
<text text-anchor="middle" x="73.5" y="-62" font-family="Helvetica,sans-Serif" font-size="10.00">display.h</text>
</a>
</g>
</g>
<!-- Node1&#45;&gt;Node3 -->
<g id="edge2" class="edge">
<title>Node1&#45;&gt;Node3</title>
<path fill="none" stroke="#63b8ff" d="M50.12,-109.75C53.79,-102.81 59.04,-92.86 63.64,-84.16"/>
<polygon fill="#63b8ff" stroke="#63b8ff" points="67.2,-85.92 68.78,-75.44 61.01,-82.65 67.2,-85.92"/>
</g>
<!-- Node3&#45;&gt;Node2 -->
<g id="edge3" class="edge">
<title>Node3&#45;&gt;Node2</title>
<path fill="none" stroke="#63b8ff" d="M68.88,-54.75C65.21,-47.81 59.96,-37.86 55.36,-29.16"/>
<polygon fill="#63b8ff" stroke="#63b8ff" points="57.99,-27.65 50.22,-20.44 51.8,-30.92 57.99,-27.65"/>
</g>
</g>
</svg>
