<?xml version="1.0" encoding="UTF-8" standalone="no"?>
<!DOCTYPE svg PUBLIC "-//W3C//DTD SVG 1.1//EN"
 "http://www.w3.org/Graphics/SVG/1.1/DTD/svg11.dtd">
<!-- Generated by graphviz version 8.0.1 (20230327.1645)
 -->
<!-- Title: src/SomeClass.cpp Pages: 1 -->
<svg width="129pt" height="83pt"
 viewBox="0.00 0.00 128.50 82.76" xmlns="http://www.w3.org/2000/svg" xmlns:xlink="http://www.w3.org/1999/xlink">
<g id="graph0" class="graph" transform="scale(1 1) rotate(0) translate(4 78.76)">
<title>src/SomeClass.cpp</title>
<!-- Node1 -->
<g id="node1" class="node">
<title>Node1</title>
<g id="a_node1"><a xlink:title=" ">
<polygon fill="#999999" stroke="#666666" points="103,-74.76 0,-74.76 0,-55.76 103,-55.76 103,-74.76"/>
<text text-anchor="middle" x="51.5" y="-62.76" font-family="Helvetica,sans-Serif" font-size="10.00">src/SomeClass.cpp</text>
</a>
</g>
</g>
<!-- Node2 -->
<g id="node2" class="node">
<title>Node2</title>
<g id="a_node2"><a xlink:href="../../d1/d38/_some_class_8h.html" target="_top" xlink:title=" ">
<polygon fill="white" stroke="#666666" points="102.5,-19.76 0.5,-19.76 0.5,-0.76 102.5,-0.76 102.5,-19.76"/>
<text text-anchor="middle" x="51.5" y="-7.76" font-family="Helvetica,sans-Serif" font-size="10.00">mylib/SomeClass.h</text>
</a>
</g>
</g>
<!-- Node1&#45;&gt;Node2 -->
<g id="edge1" class="edge">
<title>Node1&#45;&gt;Node2</title>
<path fill="none" stroke="#63b8ff" d="M51.5,-55.51C51.5,-48.88 51.5,-39.5 51.5,-31.08"/>
<polygon fill="#63b8ff" stroke="#63b8ff" points="55,-31.21 51.5,-21.21 48,-31.21 55,-31.21"/>
</g>
<!-- Node2&#45;&gt;Node2 -->
<g id="edge2" class="edge">
<title>Node2&#45;&gt;Node2</title>
<path fill="none" stroke="#63b8ff" d="M86.65,-20.24C104.5,-21.7 120.5,-18.37 120.5,-10.26 120.5,-3.86 110.54,-0.44 97.56,0"/>
<polygon fill="#63b8ff" stroke="#63b8ff" points="97.55,3.48 87.65,-0.28 97.74,-3.52 97.55,3.48"/>
</g>
</g>
</svg>
