<?xml version="1.0" encoding="UTF-8" standalone="no"?>
<!DOCTYPE svg PUBLIC "-//W3C//DTD SVG 1.1//EN"
 "http://www.w3.org/Graphics/SVG/1.1/DTD/svg11.dtd">
<!-- Generated by graphviz version 8.0.1 (20230327.1645)
 -->
<!-- Title: include/mylib/SomeClass.h Pages: 1 -->
<svg width="162pt" height="83pt"
 viewBox="0.00 0.00 162.00 82.81" xmlns="http://www.w3.org/2000/svg" xmlns:xlink="http://www.w3.org/1999/xlink">
<g id="graph0" class="graph" transform="scale(1 1) rotate(0) translate(4 78.81)">
<title>include/mylib/SomeClass.h</title>
<!-- Node1 -->
<g id="node1" class="node">
<title>Node1</title>
<g id="a_node1"><a xlink:title=" ">
<polygon fill="#999999" stroke="#666666" points="136,-74 0,-74 0,-55 136,-55 136,-74"/>
<text text-anchor="middle" x="68" y="-62" font-family="Helvetica,sans-Serif" font-size="10.00">include/mylib/SomeClass.h</text>
</a>
</g>
</g>
<!-- Node1&#45;&gt;Node1 -->
<g id="edge1" class="edge">
<title>Node1&#45;&gt;Node1</title>
<path fill="none" stroke="#63b8ff" d="M122.49,-74.81C140.06,-74.72 154,-71.28 154,-64.5 154,-56.39 134.05,-53.06 111.81,-54.52"/>
<polygon fill="#63b8ff" stroke="#63b8ff" points="122.91,-71.29 112.81,-74.48 122.69,-78.29 122.91,-71.29"/>
</g>
<!-- Node2 -->
<g id="node2" class="node">
<title>Node2</title>
<g id="a_node2"><a xlink:href="../../dd/d07/_some_class_8cpp.html" target="_top" xlink:title=" ">
<polygon fill="white" stroke="#666666" points="119.5,-19 16.5,-19 16.5,0 119.5,0 119.5,-19"/>
<text text-anchor="middle" x="68" y="-7" font-family="Helvetica,sans-Serif" font-size="10.00">src/SomeClass.cpp</text>
</a>
</g>
</g>
<!-- Node1&#45;&gt;Node2 -->
<g id="edge2" class="edge">
<title>Node1&#45;&gt;Node2</title>
<path fill="none" stroke="#63b8ff" d="M68,-43.93C68,-35.53 68,-26.13 68,-19.44"/>
<polygon fill="#63b8ff" stroke="#63b8ff" points="64.5,-43.75 68,-53.75 71.5,-43.75 64.5,-43.75"/>
</g>
</g>
</svg>
